<svg width="18" height="18" viewBox="0 0 18 18" fill="none" xmlns="http://www.w3.org/2000/svg">
<path fill-rule="evenodd" clip-rule="evenodd" d="M9 0C4.11429 0 0 4.11429 0 9C0 13.8857 4.11429 18 9 18C13.8857 18 18 14.0143 18 9C18 3.98571 14.0143 0 9 0ZM8.35708 3.85708H9.64279V10.2857H8.35708V3.85708ZM8.99981 14.4001C8.48553 14.4001 7.97124 13.8858 7.97124 13.3715C7.97124 12.8572 8.35696 12.3429 8.99981 12.3429C9.5141 12.3429 10.0284 12.8572 10.0284 13.3715C10.0284 13.8858 9.5141 14.4001 8.99981 14.4001Z" fill="#EBBB13"/>
</svg>
