<svg width="20" height="20" viewBox="0 0 20 20" fill="none" xmlns="http://www.w3.org/2000/svg">
<circle cx="10" cy="10" r="9" fill="#C0C5CF"/>
<path fill-rule="evenodd" clip-rule="evenodd" d="M13.693 6.30685C13.8687 6.48259 13.8687 6.76751 13.693 6.94325L6.943 13.6932C6.76727 13.869 6.48234 13.869 6.30661 13.6932C6.13087 13.5175 6.13087 13.2326 6.30661 13.0569L13.0566 6.30685C13.2323 6.13111 13.5173 6.13111 13.693 6.30685Z" fill="white"/>
<path fill-rule="evenodd" clip-rule="evenodd" d="M6.30661 6.30685C6.48234 6.13111 6.76727 6.13111 6.943 6.30685L13.693 13.0569C13.8687 13.2326 13.8687 13.5175 13.693 13.6932C13.5173 13.869 13.2323 13.869 13.0566 13.6932L6.30661 6.94325C6.13087 6.76751 6.13087 6.48259 6.30661 6.30685Z" fill="white"/>
</svg>
